<mxfile host="app.diagrams.net" modified="2023-10-12T05:24:36.669Z" agent="Mozilla/5.0 (Windows NT 10.0; Win64; x64; rv:109.0) Gecko/20100101 Firefox/115.0" version="21.6.1" etag="O9yIR9C9FNSGiMECl2TY" type="github">
  <diagram name="Page-1" id="AuTa3dKP5eudZVx7RyAy">
    <mxGraphModel>
      <root>
        <mxCell id="0" />
        <mxCell id="1" parent="0" />
      </root>
    </mxGraphModel>
  </diagram>
</mxfile>
